# xmcd
#
# Track frame offsets: 
#        150
#        11795
#        23010
#        39700
#        59728
#        78005
#        94445
#        107668
#        125540
#        140088
#        158340
#        169760
#        186390
#        197273
#        208228
#        220603
#        232413
#        245143
#
# Disc length: 3433 seconds
#
# Revision: 2
# Processed by: cddbd v1.5.2PL0 Copyright (c) Steve Scherf et al.
# Submitted via: ExactAudioCopy v0.95b4
#
DISCID=060d6712
DTITLE=Hooker, John Lee  - The Vee-Jay Years - CD 2
DYEAR=1900
DGENRE=Blues
TTITLE0=I love you honey
TTITLE1=You've taken my woman
TTITLE2=Mama, you've got a daughter
TTITLE3=Nightmare
TTITLE4=House rent boogie
TTITLE5=Trying to find a woman
TTITLE6=Drive me away
TTITLE7=I'm goin' home
TTITLE8=Love me all the time
TTITLE9=Lou Della
TTITLE10=Bundle up and go
TTITLE11=Wrong doin' woman
TTITLE12=Maudie
TTITLE13=Tennessee blues
TTITLE14=I'm in the mood
TTITLE15=Boogie chillun
TTITLE16=Hobo blues
TTITLE17=Crawlin' kingsnake
EXTD=
EXTT0=
EXTT1=
EXTT2=
EXTT3=
EXTT4=
EXTT5=
EXTT6=
EXTT7=
EXTT8=
EXTT9=
EXTT10=
EXTT11=
EXTT12=
EXTT13=
EXTT14=
EXTT15=
EXTT16=
EXTT17=
PLAYORDER=
